<svg width="165" height="25" viewBox="0 0 165 25" fill="none" xmlns="http://www.w3.org/2000/svg">
<g clip-path="url(#clip0_69_18)">
<path d="M14.7411 0.766819V19.8327H11.6201V18.0638C10.5269 19.3709 8.91344 20.0157 7.0179 20.0157C2.98878 20.0157 0 17.2447 0 12.9749C0 8.70512 2.98878 5.96027 7.0179 5.96027C8.80764 5.96027 10.3946 6.55281 11.4878 7.8076V0.766819H14.7411ZM11.5407 12.9749C11.5407 10.352 9.751 8.6877 7.40582 8.6877C5.06065 8.6877 3.27091 10.3608 3.27091 12.9749C3.27091 15.5891 5.06065 17.2621 7.40582 17.2621C9.751 17.2621 11.5407 15.5891 11.5407 12.9749Z" fill="white"/>
<path d="M31.9949 14.0031H21.1066C21.4945 16.0073 23.1873 17.2883 25.603 17.2883C27.1635 17.2883 28.3802 16.8003 29.3676 15.7982L31.1133 17.7762C29.8613 19.2402 27.9129 20.007 25.5237 20.007C20.8686 20.007 17.8533 17.053 17.8533 12.9662C17.8533 8.8794 20.895 5.95155 25.0299 5.95155C29.1648 5.95155 32.0478 8.74869 32.0478 13.0446C32.0478 13.2973 32.0214 13.6894 31.9949 13.9944V14.0031ZM21.0802 11.8682H28.9533C28.6976 9.8902 27.1635 8.53085 25.0299 8.53085C22.8963 8.53085 21.3887 9.86406 21.0802 11.8682Z" fill="white"/>
<path d="M33.5819 18.4733L34.8338 16.0335C36.0593 16.8264 37.9284 17.3928 39.6653 17.3928C41.7195 17.3928 42.5747 16.8264 42.5747 15.8766C42.5747 13.2537 33.9963 15.7198 33.9963 10.2475C33.9963 7.65075 36.3591 5.96027 40.1061 5.96027C41.9487 5.96027 44.0559 6.39596 45.3078 7.14535L44.0559 9.58522C42.7334 8.8184 41.4021 8.55699 40.0796 8.55699C38.1048 8.55699 37.1702 9.20181 37.1702 10.0993C37.1702 12.8703 45.7486 10.4043 45.7486 15.7808C45.7486 18.3513 43.3594 20.0157 39.4625 20.0157C37.1526 20.0157 34.8338 19.3447 33.5907 18.4733H33.5819Z" fill="white"/>
<path d="M48.1114 1.92576C48.1114 0.845242 48.993 0 50.1921 0C51.3911 0 52.2728 0.792959 52.2728 1.84733C52.2728 2.98013 51.4176 3.85152 50.1921 3.85152C48.9666 3.85152 48.1114 3.00627 48.1114 1.92576Z" fill="white"/>
<path d="M69.844 6.11711V17.7588C69.844 22.7431 67.2167 25 62.3588 25C59.758 25 57.1836 24.329 55.5966 23.0481L57.0513 20.6344C58.2768 21.6365 60.2517 22.2813 62.1737 22.2813C65.2418 22.2813 66.5907 20.8958 66.5907 18.1161V17.3928C65.4446 18.6302 63.8135 19.214 61.9356 19.214C57.9594 19.214 54.9177 16.5389 54.9177 12.5566C54.9177 8.57441 57.9594 5.95155 61.9356 5.95155C63.8841 5.95155 65.6033 6.57023 66.7406 7.92959V6.1084H69.8352L69.844 6.11711ZM66.6436 12.5654C66.6436 10.2562 64.8803 8.68769 62.4293 8.68769C59.9784 8.68769 58.1886 10.2562 58.1886 12.5654C58.1886 14.8745 59.9519 16.4953 62.4293 16.4953C64.9068 16.4953 66.6436 14.9007 66.6436 12.5654Z" fill="white"/>
<path d="M87.7766 11.9728V19.8327H84.5233V12.3824C84.5233 9.94249 83.2979 8.75741 81.226 8.75741C78.9161 8.75741 77.3556 10.1429 77.3556 12.8965V19.8327H74.1023V6.11712H77.1969V7.88602C78.2637 6.63123 79.9564 5.96027 81.9754 5.96027C85.2992 5.96027 87.7678 7.83374 87.7678 11.9728H87.7766Z" fill="white"/>
<path d="M104.933 13.1753C104.933 17.1053 102.103 19.9024 98.4093 19.9024C95.6057 19.9024 93.3134 18.2816 92.4053 15.7633V19.824H91.8851V0.766819H92.4053V10.5786C93.3134 8.08644 95.6057 6.46567 98.4093 6.46567C102.103 6.46567 104.933 9.23667 104.933 13.1666V13.1753ZM104.413 13.1753C104.413 9.49808 101.839 6.96236 98.4093 6.96236C94.9797 6.96236 92.4053 9.5068 92.4053 13.1753C92.4053 16.8438 94.9797 19.4144 98.4093 19.4144C101.839 19.4144 104.413 16.8438 104.413 13.1753Z" fill="white"/>
<path d="M118.158 6.55281V19.8327H117.638V16.3123C116.862 18.5256 114.958 19.9111 112.233 19.9111C108.83 19.9111 106.723 17.9854 106.723 14.3865V6.55281H107.243V14.3865C107.243 17.6717 109.06 19.4231 112.207 19.4231C115.584 19.4231 117.638 17.1401 117.638 13.7679V6.55281H118.158Z" fill="white"/>
<path d="M127.495 6.47438V6.9885H127.336C124.109 6.9885 122.214 9.17567 122.214 12.6961V19.8414H121.694V6.55281H122.214V9.99477C122.963 7.76403 124.788 6.47438 127.486 6.47438H127.495Z" fill="white"/>
<path d="M139.688 13.1753H127.733C127.733 16.8526 130.387 19.4144 133.948 19.4144C135.738 19.4144 137.457 18.7435 138.524 17.358L138.886 17.7152C137.687 19.153 135.87 19.9024 133.948 19.9024C130.078 19.9024 127.239 17.1053 127.239 13.1753C127.239 9.24538 129.893 6.47438 133.455 6.47438C137.017 6.47438 139.697 9.20181 139.697 13.0533V13.184L139.688 13.1753ZM127.724 12.6873H139.185C139 9.40223 136.611 6.96236 133.437 6.96236C130.263 6.96236 127.9 9.40223 127.715 12.6873H127.724Z" fill="white"/>
<path d="M150.338 11.1276V19.8327H149.818V17.0094C148.963 18.7783 147.217 19.9111 144.696 19.9111C141.68 19.9111 139.935 18.4211 139.935 16.1903C139.935 14.2907 141.134 12.6176 144.713 12.6176H149.809V11.1537C149.809 8.38271 148.328 6.96236 145.542 6.96236C143.541 6.96236 141.822 7.70303 140.658 8.80969L140.296 8.45242C141.566 7.2412 143.497 6.47438 145.524 6.47438C148.645 6.47438 150.329 8.09515 150.329 11.1276H150.338ZM149.818 16.0335V13.1056H144.696C141.654 13.1056 140.455 14.3865 140.455 16.1642C140.455 18.1683 142.015 19.4231 144.696 19.4231C147.376 19.4231 148.936 18.1858 149.818 16.0335Z" fill="white"/>
<path d="M165 6.55281V19.8327H164.48V16.3123C163.704 18.5256 161.8 19.9111 159.075 19.9111C155.672 19.9111 153.565 17.9854 153.565 14.3865V6.55281H154.085V14.3865C154.085 17.6717 155.901 19.4231 159.049 19.4231C162.426 19.4231 164.48 17.1401 164.48 13.7679V6.55281H165Z" fill="white"/>
<path d="M51.8055 6.11712H48.5522V19.8327H51.8055V6.11712Z" fill="white"/>
</g>
<defs>
<clipPath id="clip0_69_18">
<rect width="165" height="25" fill="white"/>
</clipPath>
</defs>
</svg>
